<svg xmlns="http://www.w3.org/2000/svg" viewBox="0 0 1024 1024" width="1024" height="1024">
  <defs>
    <radialGradient id="tile" cx="50%" cy="42%" r="75%">
      <stop offset="0%" stop-color="#1c212b"/>
      <stop offset="100%" stop-color="#0d0f13"/>
    </radialGradient>
    <radialGradient id="aura" cx="50%" cy="50%" r="50%">
      <stop offset="0%" stop-color="#6c9fff" stop-opacity="0.28"/>
      <stop offset="45%" stop-color="#6c9fff" stop-opacity="0.09"/>
      <stop offset="70%" stop-color="#6c9fff" stop-opacity="0"/>
    </radialGradient>
  </defs>

  <!-- Rounded app tile -->
  <rect x="0" y="0" width="1024" height="1024" rx="180" fill="url(#tile)"/>

  <!-- Soft aura behind the emblem -->
  <circle cx="512" cy="512" r="360" fill="url(#aura)"/>

  <!-- Emblem: the same wreath + vinyl artwork, scaled from its 12,14,76,76 box -->
  <g transform="translate(12,-8) scale(10)">
    <circle cx="50" cy="50" r="25" fill="#141418"/>
    <circle cx="50" cy="50" r="25" fill="none" stroke="#cdb87e" stroke-width="0.8"/>
    <circle cx="50" cy="50" r="21" fill="none" stroke="rgba(255,255,255,0.12)" stroke-width="0.6"/>
    <circle cx="50" cy="50" r="18" fill="none" stroke="rgba(255,255,255,0.12)" stroke-width="0.6"/>
    <circle cx="50" cy="50" r="15" fill="none" stroke="rgba(255,255,255,0.12)" stroke-width="0.6"/>
    <circle cx="50" cy="50" r="12" fill="none" stroke="rgba(255,255,255,0.12)" stroke-width="0.6"/>
    <circle cx="50" cy="50" r="8.5" fill="#6c9fff"/>
    <circle cx="50" cy="50" r="1.8" fill="#171a21"/>
    <g fill="#cdb87e" stroke="#cdb87e">
      <g id="branch">
        <path d="M 47 82 C 30 74, 20 58, 21 42 C 22 32, 30 24, 41 20" fill="none" stroke-width="1.4" stroke-linecap="round"/>
        <ellipse cx="30" cy="74" rx="5" ry="2.2" transform="rotate(130 30 74)"/>
        <ellipse cx="23" cy="64" rx="5" ry="2.2" transform="rotate(153 23 64)"/>
        <ellipse cx="20" cy="53" rx="5" ry="2.2" transform="rotate(174 20 53)"/>
        <ellipse cx="21" cy="43" rx="5" ry="2.2" transform="rotate(-166 21 43)"/>
        <ellipse cx="25" cy="33" rx="5" ry="2.2" transform="rotate(-146 25 33)"/>
        <ellipse cx="32" cy="25" rx="5" ry="2.2" transform="rotate(-126 32 25)"/>
      </g>
      <use href="#branch" transform="translate(100,0) scale(-1,1)"/>
    </g>
  </g>
</svg>
